<?xml version="1.0" standalone="no"?>
<!DOCTYPE svg PUBLIC "-//W3C//DTD SVG 20010904//EN"
 "http://www.w3.org/TR/2001/REC-SVG-20010904/DTD/svg10.dtd">
<svg version="1.0" xmlns="http://www.w3.org/2000/svg"
 width="270.000000pt" height="270.000000pt" viewBox="0 0 270.000000 270.000000"
 preserveAspectRatio="xMidYMid meet">
<metadata>
Created by potrace 1.14, written by Peter Selinger 2001-2017
</metadata>
<g transform="translate(0.000000,270.000000) scale(0.100000,-0.100000)"
fill="#000000" stroke="none">
<path d="M1166 2363 c-146 -25 -294 -85 -426 -172 -68 -44 -270 -243 -270
-266 0 -2 -13 -23 -29 -47 -34 -50 -81 -151 -104 -223 -36 -108 -46 -188 -42
-330 3 -149 23 -254 66 -350 13 -27 24 -56 25 -64 2 -8 6 -17 11 -20 10 -8 53
-81 60 -104 3 -9 9 -17 14 -17 12 0 12 0 -7 51 -8 24 -17 53 -20 64 -2 11 -7
34 -10 50 -16 70 -20 192 -9 255 3 16 7 45 11 63 3 17 17 56 31 84 32 67 77
97 136 90 41 -4 119 -35 125 -49 2 -5 10 -8 18 -8 8 0 14 -4 14 -10 0 -5 5
-10 11 -10 6 0 48 -26 92 -59 111 -80 265 -158 350 -177 9 -2 25 -6 35 -8 9
-2 37 -9 61 -16 23 -6 46 -9 49 -6 3 3 10 2 16 -3 6 -5 27 -10 46 -12 19 -2
39 -5 44 -7 5 -3 25 -6 45 -8 318 -24 351 -31 378 -82 10 -21 18 -44 18 -52
-2 -35 -28 -120 -36 -120 -5 0 -9 -5 -9 -12 0 -18 -78 -117 -138 -175 -67 -66
-170 -134 -259 -174 -37 -16 -77 -34 -88 -39 -22 -10 -53 -19 -83 -25 -11 -2
-37 -8 -58 -14 -22 -6 -51 -11 -66 -11 -27 0 -41 -16 -15 -17 6 -1 44 -4 82
-8 340 -34 640 71 876 305 146 146 257 347 284 515 3 22 9 58 12 80 22 138 -6
365 -61 488 -9 20 -23 54 -32 75 -16 35 -90 156 -117 189 -26 32 -181 183
-188 183 -4 0 -14 6 -21 13 -19 18 -116 77 -128 77 -6 0 -10 5 -10 10 0 6 -4
10 -9 10 -5 0 -26 8 -47 17 -22 9 -42 18 -46 19 -5 1 -10 3 -13 4 -3 1 -8 3
-12 5 -5 1 -15 4 -23 7 -43 15 -88 28 -115 32 -16 3 -41 8 -55 12 -53 12 -287
10 -364 -3z"/>
</g>
</svg>
